# xmcd
#
# Track frame offsets:
#	150
#	14345
#	28537
#	44565
#	56715
#	69410
#	89312
#	101830
#	116452
#	131767
#	147045
#	158292
#	173835
#	192010
#
# Disc length: 2732
#
# Revision: 1
# Processed by: cddbd v1.5.1PL0 Copyright (c) Steve Scherf et al.
# Submitted via: VisiTrax 2.9.3.171 - For more info visit www.synapsa.com
# Normalized: r0:DSETVAR1
#
DISCID=b50aaa0e
DTITLE=Various Artist - Mr Music Country5-99
DYEAR=1900
DGENRE=
TTITLE0=Ray Price - Somewhere In Texas
TTITLE1=Gene Watson - The Man That Broke Your Heart
TTITLE2=Clinton Gregory - The Game Is The Same
TTITLE3=The Kendalls - A Far Cry
TTITLE4=Don Cox - I Never Met a Woman I Didn't Like
TTITLE5=Dean Chance - An American Trilogy
TTITLE6=The Whites - Walk That Line
TTITLE7=Jack Greene - Goin' Through Hell For An Angel
TTITLE8=The Geezinlaws - People Who Read People Magazine
TTITLE9=Faron Young - The Memory
TTITLE10=Ashley Evans - All My Lovin'
TTITLE11=Ray pennington and Buddy Emmons - Woman Go On Home
TTITLE12=Bryan Smith - She'll Never Let Texas Twist Her
TTITLE13=Dawnett Faucett - Before The River Runs Dry
EXTD=
EXTT0=
EXTT1=
EXTT2=
EXTT3=
EXTT4=
EXTT5=
EXTT6=
EXTT7=
EXTT8=
EXTT9=
EXTT10=
EXTT11=
EXTT12=
EXTT13=
PLAYORDER=
